name N:\Shared_Data\HIL\Data Collection\CoPD-X-MoreData\processed\iteration012\grf0012.mot
datacolumns 19
datarows 38
range 2326.267806 2326.329468
endheader
time	ground_force1_vx	ground_force1_vy	ground_force1_vz	ground_force1_px	ground_force1_py	ground_force1_pz	ground_force2_vx	ground_force2_vy	ground_force2_vz	ground_force2_px	ground_force2_py	ground_force2_pz	ground_torque1_x	ground_torque1_y	ground_torque1_z	ground_torque2_x	ground_torque2_y	ground_torque2_z	
2326.267806	-1.065061339	2.728173064	-0.2277058043	8.428741816	0	-0.0193330755	9.691262171	691.0294753	-40.83046628	8.375024192	0	-0.04240622203	0	-0.006627515375	0	0	-6.028854061	0	
2326.269465	-1.404346287	3.697348428	-0.3035004455	8.432634679	0	-0.01723825614	9.002082933	691.9344122	-40.82703584	8.375247685	0	-0.04242611793	0	-0.008366442518	0	0	-6.029074313	0	
2326.271138	-1.755945157	4.733887986	-0.3826850844	8.435925846	0	-0.01550875649	8.306477719	692.8933717	-40.82626062	8.375471695	0	-0.04244475399	0	-0.01010644485	0	0	-6.03037485	0	
2326.272805	-2.106534661	5.806531005	-0.4622740317	8.438913226	0	-0.01395186943	7.604542053	693.905644	-40.82833805	8.375696028	0	-0.04246224131	0	-0.01169307158	0	0	-6.032708323	0	
2326.274468	-2.442537745	6.882227208	-0.5391388388	8.441748649	0	-0.01246787649	6.896381171	694.9704645	-40.83347385	8.375920469	0	-0.04247869415	0	-0.01295310128	0	0	-6.036025303	0	
2326.276132	-2.751185563	7.928752425	-0.6102358855	8.444518275	0	-0.0109984897	6.182110957	696.0870131	-40.84188114	8.376144787	0	-0.04249422923	0	-0.01370035666	0	0	-6.040274094	0	
2326.277797	-3.021486579	8.917177268	-0.6728211053	8.447274297	0	-0.009506753977	5.46185888	697.2544135	-40.85377949	8.376368738	0	-0.04250896494	0	-0.01374354666	0	0	-6.045400544	0	
2326.279467	-3.244978159	9.823865761	-0.7246250697	8.450048999	0	-0.007968301597	4.735764891	698.4717321	-40.86939392	8.376592074	0	-0.0425230206	0	-0.0128944504	0	0	-6.051347871	0	
2326.281134	-3.416186692	10.63179978	-0.7639717195	8.452861433	0	-0.006367342796	4.003982285	699.7379775	-40.8889539	8.376814544	0	-0.04253651573	0	-0.01097549298	0	0	-6.058056494	0	
2326.282805	-3.532777489	11.33115971	-0.7898352282	8.455720662	0	-0.00469486839	3.266678517	701.0520995	-40.91269214	8.377035899	0	-0.04254956928	0	-0.007826151988	0	0	-6.065463879	0	
2326.284472	-3.595419493	11.91920153	-0.8018384744	8.458627308	0	-0.002947961643	2.524035943	702.4129883	-40.94084354	8.377255899	0	-0.04256229895	0	-0.003307899534	0	0	-6.073504398	0	
2326.286137	-3.60741824	12.3995447	-0.800202511	8.461574293	0	-0.001129648984	1.776252498	703.819474	-40.97364392	8.377474315	0	-0.04257482047	0	0.002692406672	0	0	-6.082109204	0	
2326.2878	-3.574185253	12.7810269	-0.7856595588	8.464547303	0	0.0007510761618	1.023542283	705.270326	-41.01132885	8.377690933	0	-0.04258724692	0	0.01026059094	0	0	-6.091206131	0	
2326.289465	-3.502615932	13.07629685	-0.7593429656	8.467525356	0	0.002679340272	0.266136054	706.7642524	-41.05413239	8.377905561	0	-0.04259968809	0	0.01945444396	0	0	-6.100719605	0	
2326.291137	-3.400443595	13.30031101	-0.7226668054	8.47048175	0	0.004634822285	-0.4957183932	708.2998995	-41.10228585	8.37811803	0	-0.0426122499	0	0.03030388695	0	0	-6.110570586	0	
2326.292799	-3.275627415	13.46888001	-0.6772058964	8.473385541	0	0.006592702354	-1.261755958	709.8758517	-41.15601651	8.3783282	0	-0.04262503379	0	0.04281168343	0	0	-6.120676535	0	
2326.294467	-3.1358187	13.59738092	-0.6245844758	8.476203579	0	0.008525192978	-2.031694095	711.4906309	-41.21554641	8.378535958	0	-0.04263813623	0	0.05695451744	0	0	-6.130951408	0	
2326.296132	-2.987935411	13.69971795	-0.5663790172	8.47890292	0	0.01040357362	-2.805232805	713.1426971	-41.28109107	8.37874123	0	-0.04265164826	0	0.072684567	0	0	-6.141305678	0	
2326.297799	-2.837860464	13.78757892	-0.5040380669	8.481453294	0	0.01220049076	-3.582054767	714.8304475	-41.35285829	8.378943973	0	-0.042665655	0	0.08993211196	0	0	-6.151646397	0	
2326.29947	-2.690266505	13.87000248	-0.4388197662	8.483829179	0	0.01389215971	-4.361825618	716.5522177	-41.43104698	8.379144185	0	-0.04268023536	0	0.1086100878	0	0	-6.16187728	0	
2326.301135	-2.548559179	13.95324277	-0.3717460863	8.486011048	0	0.01546006297	-5.144194375	718.3062814	-41.51584594	8.379341904	0	-0.04269546165	0	0.1286216433	0	0	-6.171898835	0	
2326.302811	-2.414922885	14.04089564	-0.3035718187	8.487985486	0	0.01689180884	-5.928794015	720.0908514	-41.6074328	8.379537206	0	-0.04271139939	0	0.149871524	0	0	-6.181608525	0	
2326.304463	-2.290447768	14.13423404	-0.2347660303	8.489744095	0	0.01818097996	-6.715242203	721.90408	-41.70597289	8.379730211	0	-0.04272810705	0	0.1722814504	0	0	-6.190900969	0	
2326.306133	-2.175314024	14.23269035	-0.1655039432	8.491281389	0	0.0193260109	-7.503142173	723.7440603	-41.81161825	8.37992108	0	-0.04274563594	0	0.1958086929	0	0	-6.199668178	0	
2326.307803	-2.069009327	14.33441915	-0.0956679011	8.492592037	0	0.02032832174	-8.29208376	725.6088269	-41.9245066	8.380110016	0	-0.04276403008	0	0.2204659956	0	0	-6.207799832	0	
2326.309464	-1.970556702	14.43687515	-0.02485707572	8.493667951	0	0.02119005179	-9.081644579	727.4963578	-42.04476044	8.380297261	0	-0.04278332623	0	0.2463400982	0	0	-6.215183597	0	
2326.311134	-1.878733197	14.53734655	0.04759335456	8.494495719	0	0.02191176845	-9.871391346	729.4045755	-42.17248617	8.380483099	0	-0.04280355386	0	0.2736055296	0	0	-6.221705475	0	
2326.312798	-1.79226359	14.63339323	0.1225818517	8.495054784	0	0.02249048935	-10.66088134	731.3313492	-42.30777327	8.38066785	0	-0.04282473522	0	0.3025301835	0	0	-6.227250197	0	
2326.314465	-1.709977796	14.72315107	0.2011966215	8.495316709	0	0.02291828255	-11.44966398	733.2744964	-42.45069351	8.380851873	0	-0.04284688551	0	0.3334694405	0	0	-6.231701646	0	
2326.316132	-1.630925085	14.80547721	0.2846556064	8.495245715	0	0.02318162721	-12.23728256	735.2317854	-42.60130032	8.381035558	0	-0.042870013	0	0.3668462772	0	0	-6.234943322	0	
2326.317804	-1.55444253	14.87992581	0.3742281902	8.494800588	0	0.02326163833	-13.02327605	737.2009375	-42.75962808	8.381219328	0	-0.04289411929	0	0.4031158999	0	0	-6.236858833	0	
2326.319473	-1.480178862	14.94655911	0.4711374909	8.493937892	0	0.02313518014	-13.80718106	739.17963	-42.92569162	8.381403635	0	-0.04291919952	0	0.4427149624	0	0	-6.237332425	0	
2326.321139	-1.408078155	15.00561292	0.5764438215	8.492616259	0	0.02277680325	-14.5885338	741.1654987	-43.09948564	8.381588953	0	-0.04294524269	0	0.4859973352	0	0	-6.236249533	0	
2326.322801	-1.338330216	15.05704985	0.6909121922	8.490801345	0	0.02216133324	-15.36687226	743.156141	-43.28098435	8.381775781	0	-0.04297223198	0	0.5331605522	0	0	-6.233497366	0	
2326.324471	-1.271296388	15.10004541	0.814869439	8.488470815	0	0.02126681988	-16.14173835	745.1491192	-43.47014102	8.381964633	0	-0.04300014509	0	0.5841691723	0	0	-6.228965509	0	
2326.326137	-1.207420462	15.1324617	0.9480594815	8.485618625	0	0.02007745197	-16.9126801	747.1419639	-43.66688774	8.382156038	0	-0.04302895464	0	0.6386829731	0	0	-6.222546547	0	
2326.327803	-1.14713483	15.15037016	1.089508018	8.482257817	0	0.01858598824	-17.67925399	749.1321776	-43.87113518	8.382350534	0	-0.04305862853	0	0.6959986928	0	0	-6.214136707	0	
2326.329468	-1.090771701	15.147687	1.237410321	8.478421244	0	0.01679528539	-18.44102719	751.1172381	-44.08277239	8.382548665	0	-0.04308913039	0	0.7550136797	0	0	-6.203636511	0	
